HIERARCHY
ROOT Hips
{
	OFFSET -14.64140 90.27770 -84.91600
	CHANNELS 6 Xposition Yposition Zposition Zrotation Xrotation Yrotation
	JOINT Spine
	{
		OFFSET 0.00000 13.20850 -1.60436
		CHANNELS 3 Zrotation Xrotation Yrotation
		JOINT Spine1
		{
			OFFSET 0.00000 8.61716 0.00000
			CHANNELS 3 Zrotation Xrotation Yrotation
			JOINT Spine2
			{
				OFFSET 0.00000 8.61717 0.00000
				CHANNELS 3 Zrotation Xrotation Yrotation
				JOINT Spine3
				{
					OFFSET 0.00000 8.61717 0.00000
					CHANNELS 3 Zrotation Xrotation Yrotation
					JOINT Neck
					{
						OFFSET 0.00000 11.07920 1.10792
						CHANNELS 3 Zrotation Xrotation Yrotation
						JOINT Neck1
						{
							OFFSET 0.00000 7.08032 0.00000
							CHANNELS 3 Zrotation Xrotation Yrotation
							JOINT Head
							{
								OFFSET 0.00000 7.08031 0.00000
								CHANNELS 3 Zrotation Xrotation Yrotation
								End site
								{
									OFFSET 0.00000 0.00000 0.00000
								}
							}
						}
					}
					JOINT RightShoulder
					{
						OFFSET -0.01000 7.91373 5.19711
						CHANNELS 3 Zrotation Xrotation Yrotation
						JOINT RightArm
						{
							OFFSET -18.41580 0.00000 0.00000
							CHANNELS 3 Zrotation Xrotation Yrotation
							JOINT RightForeArm
							{
								OFFSET -29.11090 0.00000 0.00000
								CHANNELS 3 Zrotation Xrotation Yrotation
								JOINT RightHand
								{
									OFFSET -24.65040 0.00000 0.00000
									CHANNELS 3 Zrotation Xrotation Yrotation
									JOINT RightHandThumb1
									{
										OFFSET -5.35114 -0.85590 3.97906
										CHANNELS 3 Zrotation Xrotation Yrotation
										JOINT RightHandThumb2
										{
											OFFSET -4.52789 0.00000 0.00000
											CHANNELS 3 Zrotation Xrotation Yrotation
											JOINT RightHandThumb3
											{
												OFFSET -2.46976 0.00000 0.00000
												CHANNELS 3 Zrotation Xrotation Yrotation
												End site
												{
													OFFSET 0.00000 0.00000 0.00000
												}
											}
										}
									}
									JOINT RightHandIndex1
									{
										OFFSET -14.26970 0.00000 2.88139
										CHANNELS 3 Zrotation Xrotation Yrotation
										JOINT RightHandIndex2
										{
											OFFSET -5.48836 0.00000 0.00000
											CHANNELS 3 Zrotation Xrotation Yrotation
											JOINT RightHandIndex3
											{
												OFFSET -3.01859 0.00000 0.00000
												CHANNELS 3 Zrotation Xrotation Yrotation
												End site
												{
													OFFSET 0.00000 0.00000 0.00000
												}
											}
										}
									}
									JOINT RightHandMiddle1
									{
										OFFSET -14.26970 0.00000 -0.09147
										CHANNELS 3 Zrotation Xrotation Yrotation
										JOINT RightHandMiddle2
										{
											OFFSET -6.17441 0.00000 0.00000
											CHANNELS 3 Zrotation Xrotation Yrotation
											JOINT RightHandMiddle3
											{
												OFFSET -3.56743 0.00000 0.00000
												CHANNELS 3 Zrotation Xrotation Yrotation
												End site
												{
													OFFSET 0.00000 0.00000 0.00000
												}
											}
										}
									}
									JOINT RightHandRing1
									{
										OFFSET -12.69180 0.00000 -3.06433
										CHANNELS 3 Zrotation Xrotation Yrotation
										JOINT RightHandRing2
										{
											OFFSET -5.62556 0.00000 0.00000
											CHANNELS 3 Zrotation Xrotation Yrotation
											JOINT RightHandRing3
											{
												OFFSET -3.56744 0.00000 0.00000
												CHANNELS 3 Zrotation Xrotation Yrotation
												End site
												{
													OFFSET 0.00000 0.00000 0.00000
												}
											}
										}
									}
									JOINT RightHandPinky1
									{
										OFFSET -11.11390 0.00000 -6.03719
										CHANNELS 3 Zrotation Xrotation Yrotation
										JOINT RightHandPinky2
										{
											OFFSET -4.52789 0.00000 0.00000
											CHANNELS 3 Zrotation Xrotation Yrotation
											JOINT RightHandPinky3
											{
												OFFSET -2.46976 0.00000 0.00000
												CHANNELS 3 Zrotation Xrotation Yrotation
												End site
												{
													OFFSET 0.00000 0.00000 0.00000
												}
											}
										}
									}
								}
							}
						}
					}
					JOINT LeftShoulder
					{
						OFFSET 0.01000 7.91373 5.19711
						CHANNELS 3 Zrotation Xrotation Yrotation
						JOINT LeftArm
						{
							OFFSET 18.41580 0.00000 0.00000
							CHANNELS 3 Zrotation Xrotation Yrotation
							JOINT LeftForeArm
							{
								OFFSET 29.11090 0.00000 0.00000
								CHANNELS 3 Zrotation Xrotation Yrotation
								JOINT LeftHand
								{
									OFFSET 24.65040 0.00000 0.00000
									CHANNELS 3 Zrotation Xrotation Yrotation
									JOINT LeftHandThumb1
									{
										OFFSET 5.35114 -0.85590 3.97906
										CHANNELS 3 Zrotation Xrotation Yrotation
										JOINT LeftHandThumb2
										{
											OFFSET 4.52789 0.00000 0.00000
											CHANNELS 3 Zrotation Xrotation Yrotation
											JOINT LeftHandThumb3
											{
												OFFSET 2.46977 0.00000 0.00000
												CHANNELS 3 Zrotation Xrotation Yrotation
												End site
												{
													OFFSET 0.00000 0.00000 0.00000
												}
											}
										}
									}
									JOINT LeftHandIndex1
									{
										OFFSET 14.26970 0.00000 2.88139
										CHANNELS 3 Zrotation Xrotation Yrotation
										JOINT LeftHandIndex2
										{
											OFFSET 5.48836 0.00000 0.00000
											CHANNELS 3 Zrotation Xrotation Yrotation
											JOINT LeftHandIndex3
											{
												OFFSET 3.01859 0.00000 0.00000
												CHANNELS 3 Zrotation Xrotation Yrotation
												End site
												{
													OFFSET 0.00000 0.00000 0.00000
												}
											}
										}
									}
									JOINT LeftHandMiddle1
									{
										OFFSET 14.26970 0.00000 -0.09147
										CHANNELS 3 Zrotation Xrotation Yrotation
										JOINT LeftHandMiddle2
										{
											OFFSET 6.17440 0.00000 0.00000
											CHANNELS 3 Zrotation Xrotation Yrotation
											JOINT LeftHandMiddle3
											{
												OFFSET 3.56744 0.00000 0.00000
												CHANNELS 3 Zrotation Xrotation Yrotation
												End site
												{
													OFFSET 0.00000 0.00000 0.00000
												}
											}
										}
									}
									JOINT LeftHandRing1
									{
										OFFSET 12.69180 0.00000 -3.06433
										CHANNELS 3 Zrotation Xrotation Yrotation
										JOINT LeftHandRing2
										{
											OFFSET 5.62556 0.00000 0.00000
											CHANNELS 3 Zrotation Xrotation Yrotation
											JOINT LeftHandRing3
											{
												OFFSET 3.56744 0.00000 0.00000
												CHANNELS 3 Zrotation Xrotation Yrotation
												End site
												{
													OFFSET 0.00000 0.00000 0.00000
												}
											}
										}
									}
									JOINT LeftHandPinky1
									{
										OFFSET 11.11390 0.00000 -6.03719
										CHANNELS 3 Zrotation Xrotation Yrotation
										JOINT LeftHandPinky2
										{
											OFFSET 4.52789 0.00000 0.00000
											CHANNELS 3 Zrotation Xrotation Yrotation
											JOINT LeftHandPinky3
											{
												OFFSET 2.46976 0.00000 0.00000
												CHANNELS 3 Zrotation Xrotation Yrotation
												End site
												{
													OFFSET 0.00000 0.00000 0.00000
												}
											}
										}
									}
								}
							}
						}
					}
					JOINT pCube4
					{
						OFFSET 0.00000 10.91090 1.10792
						CHANNELS 3 Zrotation Xrotation Yrotation
						End site
						{
							OFFSET 0.00000 0.00000 0.00000
						}
					}
				}
			}
		}
	}
	JOINT RightUpLeg
	{
		OFFSET -9.98441 0.00000 0.00000
		CHANNELS 3 Zrotation Xrotation Yrotation
		JOINT RightLeg
		{
			OFFSET 0.00000 -42.11790 0.00000
			CHANNELS 3 Zrotation Xrotation Yrotation
			JOINT RightFoot
			{
				OFFSET 0.00000 -45.00020 -0.00001
				CHANNELS 3 Zrotation Xrotation Yrotation
				JOINT RightForeFoot
				{
					OFFSET 0.00000 -3.74820 0.00000
					CHANNELS 3 Zrotation Xrotation Yrotation
					JOINT RightToeBase
					{
						OFFSET 0.00000 0.06325 14.43120
						CHANNELS 3 Zrotation Xrotation Yrotation
						End site
						{
							OFFSET 0.00000 0.00000 0.00000
						}
					}
				}
			}
		}
	}
	JOINT LeftUpLeg
	{
		OFFSET 9.98441 0.00000 0.00000
		CHANNELS 3 Zrotation Xrotation Yrotation
		JOINT LeftLeg
		{
			OFFSET 0.00000 -42.11800 0.00000
			CHANNELS 3 Zrotation Xrotation Yrotation
			JOINT LeftFoot
			{
				OFFSET 0.00000 -45.00070 0.00000
				CHANNELS 3 Zrotation Xrotation Yrotation
				JOINT LeftForeFoot
				{
					OFFSET 0.00000 -3.74824 0.00000
					CHANNELS 3 Zrotation Xrotation Yrotation
					JOINT LeftToeBase
					{
						OFFSET 0.00000 0.06325 14.43110
						CHANNELS 3 Zrotation Xrotation Yrotation
						End site
						{
							OFFSET 0.00000 0.00000 0.00000
						}
					}
				}
			}
		}
	}
}
MOTION
Frames: 4
Frame Time: 0.050000
-0.013835156845372022 0.01765071600706394 -0.003501731714015951 -0.03908740945184828 0.009498738499988554 -0.017932866809340756 -4.729944851572791 0.7857814818899618 -0.4251038648640168 -0.9803695813390779 3.318939890138897 0.3481634078238385 -1.1993130582706926 -1.7739631889568468 -1.2012911731888387 -0.609449312388892 0.2776893804823167 -0.9000182183593395 -0.8354880013808051 12.31624949084095 1.068594398412815 -0.023962474253459168 1.0345258571604656 0.24667755646925504 -0.4631444642803259 -12.426657143830056 0.11365665581837399 -0.7067406603926657 0.9831951524995082 -12.562115634524643 68.25821441052355 14.7149593723221 5.802497118912193 29.088764772330833 6.900779831370541 84.4458405671811 23.97333230247833 -0.3483467382210501 -5.791132903599079 4.546137492130334 -0.13003337581529797 -1.5984512839457237 -0.0322472107180326 0.020394451586343666 -56.19731667662989 0.03623196578551257 -0.004614792334091297 -56.22307911580782 -38.73933152331066 -0.010197251990594892 0.037235742813440414 0.044216307276788325 -0.04871727201400116 0.0053918176385191405 0.046602077405607095 -0.008879752344285568 -0.03515855135845863 -36.7116303616519 -0.03363031638817301 -0.011017155027590859 0.01244728422481416 0.036408745526052354 0.01097613221247843 -0.025165408957679932 0.04953441905428812 0.0043257468688585 -19.79773672373807 0.009189497339364234 -0.043404805467814125 -0.02114097054546331 0.02126471513933479 0.02960349659242761 -0.03293667338799033 0.028142245398621438 0.004883672854756811 24.032279874510905 -0.010063048591025973 0.014691596434147212 28.826314448774763 -0.03218760358708083 0.02838916190885133 28.905730087390257 -0.04990723455577584 0.03181817463306476 4.2160316721464 1.367549581877779 12.849601338191329 -60.16964990197815 24.851798960389445 -21.69423095163994 2.393954633399416 13.749509602606233 -67.02840690284111 -11.87227470579335 8.570597262347182 -6.041381674528333 -0.46359483093087867 0.05862325929020822 -8.121909216170863 0.0037254086863112656 0.02914259547300142 44.572817992347815 0.022584607728404 0.04563945306597041 44.54740968902598 12.461550625709597 0.006149921623246631 -0.04523543902338528 -0.01933787088439545 -0.04208231368544563 0.020869085750365578 -0.014958553771521005 -0.02192559797196742 0.027910516067230266 11.135870616287297 -0.028475558054496003 -0.0115976237394761 -0.011203370142040781 -0.03092014694772385 -0.01960685969429906 0.03513432279848546 0.049158598725485315 -0.0018738748692562108 4.752372635252731 -0.025188872256097044 -0.011190930323784506 -0.04053925993029179 0.0121808545985751 -0.005644497229691639 -0.046590195549653435 0.031633538283085065 -0.001934419621802978 -5.588475200541218 -0.04710923373962084 0.014442036847866943 -6.709703265216848 -0.002763788233579817 -0.008402096039014472 -6.769550370139244 0.04112086245551102 -0.008181694781995682 -0.03514983229952281 0.018229127972171598 0.03430506937947884 8.048272769734366 3.4879548781853877 -19.233519607971484 0.0024168042426403595 10.427367500298992 -0.003094395814774425 -5.585436163867567 -15.676360749357224 3.2188532788287905 -0.04207907075804049 -0.01910747150044317 -0.0244439098657039 0.025808387029942696 4.685098730715861 0.02185518005288144 12.484109066372401 -8.219026344469523 6.870251219658807 -0.0012597607819333848 46.37014474695417 -0.016191549301933783 -4.302179735003952 -14.782833053341964 -3.8144668670662596 -0.027278052431014 0.028577287727444518 0.026938433394136607 0.03458761589136976 -10.778038801413553 0.024636776161378098 
0.04922685328420187 0.000199195257281505 0.020149648888860547 0.04200933481032004 -0.049564647158165956 0.014838096996670684 -4.667523319662907 0.8195842918498609 -0.44545768489529886 -0.9681267223037449 3.3359494305307567 0.3596386188648578 -1.2051474469207466 -1.7986095098722952 -1.3577333432730436 -0.5487563418410367 0.2586618013251824 -0.9159984150924942 -0.7573170719287223 12.232095014152033 0.8951221247899488 -0.07635905160623925 0.9738703910652976 -4.836824452752325e-05 -0.4076994905182487 -12.466725885499299 0.1091969630925313 -0.6419809898777302 1.035554457324359 -12.636299986281227 68.20131714421422 14.869848061147392 5.392850669837022 29.411707659104458 7.193798629802319 83.32166806257678 24.270822782384602 -0.31999588925449257 -5.707842870757506 4.51839551295257 -0.15184413555388449 -1.6033854508289698 0.024783747273715663 -0.00959973451593968 -56.221437964103195 -0.0014077092433224857 0.00016678128609750424 -56.22804498025799 -38.789035832209564 0.01760348765626741 -0.0008538526862241518 0.00910278873164865 -0.02427857278484606 0.02837905196559976 0.0397836590412895 0.04918656029932619 -0.046327466608207434 -36.739270168495004 -0.01145049170685369 -0.017212223029265596 -0.023617462443367834 0.030401247919979363 0.018712372892946312 0.02760155689931047 -0.02892903789169271 0.013284237169189963 -19.723524359887 -0.03373149830410689 0.03845953952096496 0.04577724543791135 0.007003570803349009 -0.036821605932494936 -0.018356436097920256 -0.03796356132209153 -0.012866366686859492 24.03039016949438 -0.03216293817181031 -0.0489317196139381 28.852402751693763 -0.03864016364566289 0.028550627495863557 28.878283560354802 0.026901367287926383 0.028154355029142066 4.147263572874483 1.379650562808713 12.674981095876424 -60.22325855708871 25.445174783550062 -21.46941538480757 2.2479515973782824 13.466708083588967 -66.10695324125328 -11.878580874698567 8.56400553210474 -5.976795669663749 -0.4591914291991814 0.08022621287821104 -8.133637974109954 -0.006860817743262586 -0.004546832017445064 44.57967182005845 0.012660599825359177 0.02888395626611574 44.588336714950785 12.41210589729666 -0.012081682975282214 0.017778360218290774 -0.02045922200996972 0.006193328669712276 0.02075879466615477 -0.04066270393086622 -0.027123126946822222 0.013628211406539003 11.100076241354204 0.001238511594964582 -0.024899011939082675 0.014966553587486785 0.025945251142118993 -0.0038421605308757833 -0.04861496879071572 -0.04309633658796888 -0.04483841930076302 4.734983627623393 -0.0034080846449762925 -0.028553606744293084 -0.004227912440614653 0.03363413268115358 0.009244026385341437 0.0056626424519871064 0.033770436086490316 0.03580287597871252 -5.6229150035620306 0.023806060178467793 0.02183350442707664 -6.731035225925088 -0.03891192189766383 -0.027406846980992553 -6.702019653188007 0.036850420874809844 -0.01022578956746155 0.02858424364213954 -0.010758206737663388 -0.015603780211669051 8.088043822132846 3.5388757685526215 -19.24549424441258 0.0496945041747633 10.352250474255866 -0.03521692994611786 -5.664302189379698 -15.673899932098662 3.225397135747582 0.012258522964715449 -0.03465136071440755 -0.04737070185941095 -0.04251912475014618 4.696015845817377 -0.0031006461567316362 12.464909412504197 -8.253660803939892 6.904680587413338 -0.012888003868744861 46.357652285430525 -0.03714669214774822 -4.348611696865931 -14.780700233959031 -3.80817394598507 -0.01956428564696721 0.03461813547751154 -0.023508295309405375 -0.04866962420710805 -10.786522567970744 0.02424028629945333 
0.009236839881473929 0.03803077331227503 0.02902601395840784 -0.014377460939165082 -0.03350850058319276 -0.037873325661402724 -4.623148369596291 0.7987241180042246 -0.472695285098641 -0.9414321020156208 3.338110593627638 0.4100620772919119 -1.1724530940454099 -1.8277127163870006 -1.4627345604713529 -0.4718833380910089 0.3222209966921369 -0.9429669802892915 -0.6753683259345906 12.213006318154253 0.8549057859307044 -0.02703621683587163 1.0138662196216561 -0.19529285345439354 -0.3846365936623511 -12.411604659760771 0.08394093182415659 -0.6172177968344351 0.9815672694211731 -12.650084819290214 68.36755701963702 14.929062166674672 5.218363913861918 30.083360152375334 7.497196196652289 82.31708590356887 24.466395367442228 -0.2790632804704653 -5.672449695380485 4.482926165614457 -0.10451812713242889 -1.638552468671633 0.037288150167799274 -0.030586850507870408 -56.23075140341758 0.008339246045043195 0.0034833416032331735 -56.24379850751361 -38.780144756997544 0.026525956826525223 -0.004487961176174051 -0.04488996925142127 0.013351786498918898 -0.026988071338565667 -0.01787997397008932 0.02375905656279522 -0.0260715178147905 -36.69788805131239 -0.017133969654700668 0.008244764204508185 0.04461493676136889 0.012955997354662796 0.007796248931520221 0.02570466209334325 -0.003995473761489437 -0.00017434506019305414 -19.756766152565756 -0.007512900560834134 0.04258910569864641 0.012468209463676846 0.004244371868155296 -0.02951247092419252 -0.03646186957696565 0.02144705201468674 0.019632045536384025 24.030491899704135 0.020245604692901424 -0.010347710301023702 28.82683127103426 0.029941736551653098 0.02545759581886672 28.900422844086012 0.04975398258809501 -0.009215357533288403 4.107501671668022 1.335542499523945 12.52714017679976 -60.280114231154904 25.86116976445509 -21.39926174074547 1.6806759786859888 13.015609082750188 -65.41034399051826 -11.809738878844195 8.63916189587097 -5.971871142867328 -0.4828020950268588 0.064645267236528 -8.140004026845096 0.04131687382110056 0.03773513406047025 44.58509533614426 0.026948681855722734 -0.020698896055755804 44.60799154349052 12.473169265546108 0.010295364793952861 -0.036924511178047015 -0.00925844185727631 0.010814107526759265 0.0009171648216749683 -8.655533654688757e-05 0.04740637353716857 0.0007461511983264318 11.134275060152776 0.03457701108032084 0.04239587776214451 -0.0014976037073826899 -0.021403318056532457 0.044981482703984096 0.021022971484681737 -0.005458385845343838 0.0015739991355755484 4.803592756604223 -0.030364334723802323 -0.02326099171399279 -0.03811162426479052 0.01005281632575434 0.036363952302522456 0.03562072894441442 0.0035205511618264552 0.018743458633565666 -5.567806456305239 -0.03442813005615306 -0.01655579329888657 -6.732530340877747 -0.04190997196722995 -0.006611418774024098 -6.7588256921345815 -0.016991814284035102 -0.030167605490592823 -0.01506265092728122 -0.008289824442803635 -0.00018124554018669409 8.025369274960774 3.47447858627656 -19.199182322592375 0.023775873623625283 10.40160270602095 0.0192164215198082 -5.592451755850066 -15.654172674469148 3.2022652368808897 -0.010500938129594784 0.008597223279326245 -0.005294859056973651 0.03287070300979394 4.660982599276538 0.019657483716866025 12.473384951852431 -8.224892657622314 6.919494154853729 0.014940653495390935 46.403356914820435 -0.0007272734491875525 -4.331224636362208 -14.73978210769144 -3.8278438363514184 -0.04288628208095169 0.027905578730523472 -0.02297258020167585 0.0147565287590074 -10.72488701545085 0.016217665911730208 
0.007604641854069197 -0.029485026960032065 0.030216629755841308 -0.04040081261834037 -0.025871417190384962 -0.02354437984013803 -4.507609795029372 0.5984145389035417 -0.5228214947128392 -0.9024197362532872 3.290731601280783 0.35647996740664195 -1.2132984856334657 -1.8429375295551857 -1.581488270589201 -0.4193877484042467 0.3005419139760342 -0.9552416690912963 -0.6600034603002849 12.256222035701144 0.7367262389744724 0.0031088185252663297 1.0293832287357558 -0.18334692750553797 -0.3061193547606461 -12.342916142091951 0.05102836543295363 -0.778161471787943 1.0401197049479187 -12.692065565082927 68.47973697966177 14.773228741719521 5.133815066893226 30.926504174693445 7.64139014382264 81.37920392147629 24.558233068076074 -0.23915133194494992 -5.5989456745279265 4.521007294112907 -0.08250282266340425 -1.5843682162376578 -0.0318044105268617 -0.00647292630568773 -56.24726989745718 0.028472086162468793 0.006215454980459476 -56.21936159139257 -38.72577272966863 0.03410017440540279 -0.04169673590191751 -0.005580471019578362 0.010040044056616982 0.025098340139828347 0.047105395248905904 -0.015188621955447177 0.002245745008871979 -36.69924068504251 -0.003142394956082733 -0.014032220753024682 -0.04872640136715203 0.011983625039377775 0.011991649541634597 -0.02875174194776501 0.009390449068135421 0.029660340778568783 -19.79889455064572 -0.029617121234340807 0.033156285102085424 0.006723147807307589 -0.04440441395518397 0.01615422989079326 -0.0005121572662373418 0.04077543602294328 0.015473613072181288 24.041477427573728 -0.03568738559063061 -0.01798783161295104 28.841199579046773 -0.0013824722859695493 -0.02205786251362396 28.845484617668472 -0.021340482740452686 0.03285425223642017 4.247745859971215 1.4107788234642555 12.459205238486076 -60.37463926859914 26.06902082844095 -21.378175328753688 0.8496333406572172 12.543332408964455 -64.84839446312336 -11.760192749593466 8.691976963108333 -6.017709914745854 -0.4943418752798102 0.06191199640165282 -8.14393083266832 0.044063919938772074 -0.04239025617806265 44.539470356740544 -0.01838046322878396 0.03889107774068167 44.60041790804764 12.489967980238426 -0.020594281418849173 -0.0011089255993019117 0.004339116373541435 -0.013546190582867707 0.021783220897785678 -0.036923098131737234 -0.005475710468587703 -0.03689279300599916 11.143027368023896 0.0047853666777083175 -0.029854394033087043 0.008255773911812455 0.004465943749753795 -0.04666160567102162 -0.047938320221969866 0.040036729309560135 0.03637761087813859 4.736976457926452 0.01603978987921175 -0.01175354515958258 0.014074654631752283 0.046715667792830574 0.0443055390720916 0.023433291569770375 0.012257235623638684 0.03534416508393302 -5.611686303498699 0.03915306778906946 0.009251086496620799 -6.710050668291477 -0.020569211090050554 0.0018473788394852675 -6.7096818579711055 -0.0063851341216172195 -0.038451258204544606 0.025372871426130497 0.004247716961369479 0.008388670038858943 8.003702612092708 3.4831050518546314 -19.21992591490807 -0.03061972867926977 10.413799040162393 0.029388912983427298 -5.596835063501121 -15.658697051966433 3.239757203717878 0.03455137290721971 0.010945587116184133 -0.005217116768762229 0.03441268016283098 4.686122060748913 0.038723197514665596 12.431525323797251 -8.252196446851382 6.8975224950088005 0.038879225688578815 46.36953541985443 0.02937072113456111 -4.293015110805108 -14.774170733936682 -3.862285603964272 -0.03736888884712426 0.03472941891385491 0.004981566271637273 -0.033237599305884845 -10.74407620931179 -0.03863233424582061 
